<svg width="292" height="407" viewBox="0 0 292 407" fill="none" xmlns="http://www.w3.org/2000/svg">
<path d="M0 114C0 118.418 3.58172 122 8 122C12.4183 122 16 118.418 16 114C16 109.582 12.4183 106 8 106C3.58172 106 0 109.582 0 114ZM100.5 0V86H103.5V0H100.5ZM74 112.5H8V115.5H74V112.5ZM100.5 86C100.5 100.636 88.6355 112.5 74 112.5V115.5C90.2924 115.5 103.5 102.292 103.5 86H100.5Z" fill="#B4B4B4"/>
<path d="M0 399C0 403.418 3.58172 407 8 407C12.4183 407 16 403.418 16 399C16 394.582 12.4183 391 8 391C3.58172 391 0 394.582 0 399ZM129.5 0V371H132.5V0H129.5ZM103 397.5H8V400.5H103V397.5ZM129.5 371C129.5 385.636 117.636 397.5 103 397.5V400.5C119.292 400.5 132.5 387.292 132.5 371H129.5Z" fill="#B4B4B4"/>
<path d="M292 134C292 138.418 288.418 142 284 142C279.582 142 276 138.418 276 134C276 129.582 279.582 126 284 126C288.418 126 292 129.582 292 134ZM191.5 0V106H188.5V0H191.5ZM218 132.5H284V135.5H218V132.5ZM191.5 106C191.5 120.636 203.364 132.5 218 132.5V135.5C201.708 135.5 188.5 122.292 188.5 106H191.5Z" fill="#B4B4B4"/>
<path d="M292 336C292 340.418 288.418 344 284 344C279.582 344 276 340.418 276 336C276 331.582 279.582 328 284 328C288.418 328 292 331.582 292 336ZM161.5 0V308H158.5V0H161.5ZM188 334.5H284V337.5H188V334.5ZM161.5 308C161.5 322.636 173.364 334.5 188 334.5V337.5C171.708 337.5 158.5 324.292 158.5 308H161.5Z" fill="#B4B4B4"/>
</svg>
